<svg xmlns="http://www.w3.org/2000/svg" viewBox="0 0 171 38">
  <g fill="none" fill-rule="evenodd">
    <path fill="#000" d="M0 10.31V5.44h.7L2.24 7.9c.35.58.64 1.09.86 1.59l.02-.01c-.05-.65-.07-1.24-.07-2V5.44h.6v4.87h-.64L1.47 7.84c-.34-.54-.66-1.1-.9-1.62H.55c.03.62.04 1.2.04 2.01v2.08H0m5.58-4.48c0 .22-.15.4-.4.4-.23 0-.38-.18-.38-.4 0-.21.16-.4.4-.4.22 0 .38.18.38.4zm-.7 4.48h.63v-3.5h-.63v3.5zm2.11-1.63c.01.86.56 1.21 1.2 1.21.46 0 .74-.08.97-.18l.11.46c-.22.1-.61.22-1.17.22-1.07 0-1.72-.72-1.72-1.77s.63-1.88 1.64-1.88c1.15 0 1.45 1 1.45 1.64 0 .13-.01.23-.03.3H7zm1.86-.46c.01-.4-.16-1.02-.88-1.02-.65 0-.92.58-.97 1.02h1.85zm4.49-3.04v4.23c0 .3.01.66.03.9h-.57l-.03-.6h-.02c-.18.38-.6.68-1.17.68-.85 0-1.5-.72-1.5-1.78-.01-1.16.72-1.87 1.56-1.87.54 0 .9.26 1.05.53h.02V5.18h.63zm-.63 3.06c0-.08 0-.19-.03-.27a.94.94 0 0 0-.92-.73c-.65 0-1.04.58-1.04 1.34 0 .71.35 1.3 1.03 1.3.43 0 .82-.3.93-.76.02-.09.03-.18.03-.28v-.6zm2.11.44c.02.86.56 1.21 1.2 1.21.46 0 .74-.08.97-.18l.12.46c-.23.1-.62.22-1.17.22-1.08 0-1.72-.72-1.72-1.77s.62-1.88 1.64-1.88c1.15 0 1.44 1 1.44 1.64 0 .13 0 .23-.02.3h-2.46zm1.87-.46c0-.4-.17-1.02-.88-1.02-.65 0-.93.58-.98 1.02h1.86zm1.47-.32c0-.4 0-.76-.03-1.09h.56l.03.7h.02c.16-.47.55-.77.98-.77l.17.02v.6c-.07-.02-.13-.02-.22-.02-.45 0-.76.33-.85.81-.02.09-.02.2-.02.3v1.86h-.64v-2.4m2.34 1.76c.2.11.54.24.85.24.46 0 .68-.22.68-.52 0-.3-.19-.46-.65-.63-.63-.23-.93-.57-.93-1 0-.55.46-1.02 1.2-1.02.36 0 .67.1.86.22l-.15.46c-.14-.08-.4-.2-.72-.2-.37 0-.57.2-.57.47 0 .29.2.42.65.6.6.22.92.53.92 1.05 0 .62-.48 1.05-1.3 1.05-.38 0-.74-.1-.98-.24l.15-.48m5.47-.2c0 .3.02.6.05.84h-.57l-.05-.44h-.02c-.2.28-.57.52-1.07.52-.7 0-1.07-.5-1.07-1 0-.85.75-1.31 2.1-1.3v-.07c0-.29-.08-.81-.79-.8-.33 0-.67.09-.92.25l-.14-.42c.29-.18.71-.3 1.15-.3 1.07 0 1.33.72 1.33 1.42v1.3zm-2.27-3.65c0-.2.16-.36.37-.36.2 0 .35.16.35.36 0 .2-.14.37-.36.37a.36.36 0 0 1-.36-.37zm1.66 2.7c-.7 0-1.48.12-1.48.8 0 .41.27.6.6.6.45 0 .75-.29.85-.59a.7.7 0 0 0 .03-.2v-.6zm-.32-2.7c0-.2.16-.36.36-.36.2 0 .36.16.36.36 0 .2-.15.37-.36.37s-.36-.17-.36-.37zm4.52 4.37c-.16.08-.53.2-1 .2-1.06 0-1.74-.71-1.74-1.78 0-1.08.73-1.87 1.88-1.87.37 0 .7.1.88.2l-.15.47a1.58 1.58 0 0 0-.74-.16c-.8 0-1.23.6-1.23 1.32 0 .8.52 1.3 1.21 1.3.37 0 .6-.08.78-.16l.11.48m.82-5.01h.63v2.2h.02c.1-.19.26-.36.45-.46.19-.11.42-.18.65-.18.47 0 1.22.3 1.22 1.49v2.08h-.63v-2c0-.57-.21-1.04-.81-1.04a.92.92 0 0 0-.9.93v2.11h-.63V5.18m3.99 4.49c.2.11.53.24.85.24.45 0 .67-.22.67-.52 0-.3-.18-.46-.64-.63-.64-.23-.94-.57-.94-1 0-.55.47-1.02 1.21-1.02.35 0 .66.1.85.22l-.15.46c-.14-.08-.39-.2-.71-.2-.38 0-.58.2-.58.47 0 .29.2.42.66.6.6.22.91.53.91 1.05 0 .62-.48 1.05-1.3 1.05-.38 0-.73-.1-.98-.24l.15-.48m3.72-3.84c0 .22-.14.4-.4.4-.23 0-.38-.18-.38-.4 0-.21.16-.4.4-.4.23 0 .39.18.39.4zm-.7 4.48h.63v-3.5h-.63v3.5zm1.68-.64c.19.11.52.24.84.24.45 0 .67-.22.67-.52 0-.3-.18-.46-.64-.63-.64-.23-.93-.57-.93-1 0-.55.46-1.02 1.2-1.02.36 0 .67.1.86.22l-.16.46a1.4 1.4 0 0 0-.71-.2c-.38 0-.58.2-.58.47 0 .29.2.42.66.6.6.22.92.53.92 1.05 0 .62-.49 1.05-1.3 1.05-.39 0-.74-.1-.99-.24l.16-.48m5.51.52c-.17.08-.54.2-1 .2-1.06 0-1.75-.71-1.75-1.78 0-1.08.74-1.87 1.88-1.87.37 0 .7.1.88.2l-.14.47c-.16-.07-.4-.16-.74-.16-.8 0-1.24.6-1.24 1.32 0 .8.52 1.3 1.22 1.3.36 0 .6-.08.78-.16l.1.48m.82-5.01h.64v2.2h.01a1.3 1.3 0 0 1 1.1-.63c.48 0 1.23.28 1.23 1.48v2.08h-.64v-2c0-.57-.2-1.04-.8-1.04a.92.92 0 0 0-.9.93v2.11h-.64V5.18m4.44 3.5c.01.86.55 1.21 1.2 1.21.45 0 .73-.08.96-.18l.12.46c-.23.1-.62.22-1.17.22-1.08 0-1.72-.72-1.72-1.77s.62-1.88 1.64-1.88c1.15 0 1.44 1 1.44 1.64 0 .13 0 .23-.02.3h-2.45zm1.86-.46c0-.4-.17-1.02-.88-1.02-.65 0-.93.58-.98 1.02h1.86zM0 13.29h1.52v7.02h3.4v1.27H0v-8.29m12.94 4.06c0 2.78-1.69 4.36-3.96 4.36-2.35 0-3.83-1.8-3.83-4.21 0-2.56 1.61-4.35 3.95-4.35 2.41 0 3.84 1.83 3.84 4.2m-6.19.11c0 1.7.85 3.04 2.3 3.04 1.46 0 2.29-1.37 2.29-3.1 0-1.56-.78-3.04-2.29-3.04-1.5 0-2.3 1.4-2.3 3.1m8.74-2.9h-2.36v-1.27h6.26v1.27H17v7.02h-1.51v-7.02m6.58 0h-2.36v-1.27h6.26v1.27h-2.38v7.02h-1.52v-7.02m11.88 2.79c0 2.78-1.69 4.36-3.96 4.36-2.35 0-3.82-1.8-3.82-4.21 0-2.56 1.6-4.35 3.94-4.35 2.41 0 3.84 1.83 3.84 4.2m-6.19.11c0 1.7.85 3.04 2.3 3.04 1.47 0 2.3-1.37 2.3-3.1 0-1.56-.78-3.04-2.3-3.04-1.5 0-2.3 1.4-2.3 3.1m7.39.64h3.14v-1.05h-3.14zm4.11 1.83c.48.28 1.23.53 2 .53.96 0 1.5-.46 1.5-1.13 0-.63-.42-1-1.46-1.38-1.38-.49-2.25-1.22-2.25-2.4 0-1.37 1.13-2.4 2.94-2.4.9 0 1.55.2 1.98.43l-.36 1.21a3.6 3.6 0 0 0-1.66-.4c-.96 0-1.37.51-1.37 1 0 .64.48.94 1.59 1.37 1.44.54 2.13 1.26 2.13 2.46 0 1.34-1.01 2.5-3.14 2.5-.88 0-1.8-.25-2.25-.54l.35-1.25m6.4-6.53c.56-.1 1.3-.17 2.31-.17 1.11 0 1.9.23 2.44.68.49.4.8 1.05.8 1.83s-.24 1.42-.7 1.87c-.6.6-1.54.9-2.61.9-.28 0-.53-.02-.74-.07v3.14h-1.5V13.4zm1.5 3.85c.2.06.43.07.74.07 1.13 0 1.82-.56 1.82-1.52 0-.92-.64-1.4-1.69-1.4-.41 0-.7.04-.87.07v2.78zm12.72.1c0 2.78-1.68 4.36-3.95 4.36-2.35 0-3.83-1.8-3.83-4.21 0-2.56 1.61-4.35 3.95-4.35 2.4 0 3.83 1.83 3.83 4.2m-6.18.11c0 1.7.85 3.04 2.3 3.04 1.46 0 2.29-1.37 2.29-3.1 0-1.56-.78-3.04-2.3-3.04-1.49 0-2.29 1.4-2.29 3.1m7.49-4.05c.57-.1 1.41-.18 2.28-.18 1.2 0 2 .2 2.56.66.45.39.71.96.71 1.68 0 1.07-.72 1.8-1.51 2.06v.04c.6.22.96.8 1.16 1.6.27 1.03.49 1.99.65 2.3h-1.55c-.12-.24-.33-.91-.55-1.95-.25-1.08-.63-1.42-1.5-1.45h-.75v3.4h-1.5v-8.16zm1.5 3.66h.9c1.01 0 1.64-.55 1.64-1.37 0-.9-.63-1.33-1.6-1.33-.49 0-.8.04-.94.08v2.62zm7.14-2.51h-2.36v-1.27h6.25v1.27h-2.38v7.02h-1.51v-7.02m3.44 3.54h3.14v-1.05h-3.14zm4.58 1.83c.48.28 1.23.53 2 .53.97 0 1.5-.46 1.5-1.13 0-.63-.41-1-1.45-1.38-1.38-.49-2.26-1.22-2.26-2.4 0-1.37 1.14-2.4 2.94-2.4.9 0 1.55.2 1.98.43l-.35 1.21c-.31-.16-.89-.4-1.66-.4-.96 0-1.37.51-1.37 1 0 .64.48.94 1.59 1.37 1.44.54 2.12 1.26 2.12 2.46 0 1.34-1 2.5-3.13 2.5-.89 0-1.8-.25-2.25-.54l.34-1.25m7.99-5.37h-2.36v-1.27h6.26v1.27h-2.38v7.02h-1.52v-7.02m4.87 7.02h1.51v-8.29h-1.51zm3.25-8.29h4.79v1.24h-3.28v2.29h3.05v1.23h-3.05v3.53h-1.51v-8.29m7.84 1.27h-2.36v-1.27h6.25v1.27h-2.38v7.02h-1.51v-7.02m6.37-1.26v4.82c0 1.63.67 2.38 1.7 2.38 1.09 0 1.74-.75 1.74-2.38V13.3h1.51v4.73c0 2.56-1.31 3.7-3.3 3.7-1.92 0-3.17-1.08-3.17-3.68V13.3h1.52m6.67 8.28v-8.29h1.73l2.14 3.56c.54.92 1.03 1.88 1.42 2.77h.02c-.11-1.1-.13-2.17-.13-3.44V13.3h1.4v8.29h-1.58l-2.16-3.65a28.38 28.38 0 0 1-1.48-2.86l-.05.02c.07 1.07.09 2.16.09 3.53v2.96h-1.4m14.96-.39c-.53.2-1.56.46-2.65.46-1.4 0-2.48-.35-3.26-1.1a4.15 4.15 0 0 1-1.16-3.05c.01-2.63 1.87-4.3 4.61-4.3 1.02 0 1.82.2 2.2.39l-.33 1.22c-.45-.21-1-.36-1.88-.36-1.77 0-3.01 1.04-3.01 2.97 0 1.88 1.15 3 2.87 3 .56 0 .95-.07 1.15-.16V18.2h-1.47V17h2.93v4.2"/>
    <path fill="#777776" d="M.65 34.56a6 6 0 0 0 1.15.07c1.42 0 2.76-.5 2.76-2.1 0-1.46-1.26-2.09-2.73-2.09H.65v4.12zm0-4.66h1.37c1.34 0 2.18-.78 2.18-1.82 0-1.3-.98-1.78-2.36-1.78-.62 0-.98.04-1.19.1v3.5zM0 25.94a8.62 8.62 0 0 1 1.87-.19c1.16 0 1.92.25 2.44.76.37.39.57.88.57 1.53 0 .95-.68 1.75-1.6 2.08v.03c.77.18 1.95.86 1.95 2.37 0 .76-.26 1.34-.69 1.78-.6.64-1.61.89-2.92.89-.72 0-1.26-.04-1.62-.09v-9.16zm11.32 5.27c.01-.92-.37-2.33-1.97-2.33-1.47 0-2.1 1.31-2.21 2.33h4.18zm-4.22.53c0 2.12 1.16 2.95 2.52 2.95.97 0 1.46-.2 1.84-.37l.16.52c-.25.14-.92.43-2.08.43-1.9 0-3.1-1.4-3.1-3.34 0-2.2 1.28-3.59 2.99-3.59 2.17 0 2.58 2.05 2.58 3 0 .18 0 .29-.03.4H7.1zm6.53-3.24l1.1 3.76c.23.77.43 1.44.56 2.07h.05c.16-.6.38-1.31.66-2.07l1.32-3.76h.62l1.27 3.73c.26.8.47 1.48.65 2.1h.03c.13-.62.34-1.28.59-2.08l1.19-3.75h.67l-2.2 6.62h-.58l-1.24-3.69c-.3-.8-.52-1.51-.7-2.26h-.02c-.2.79-.44 1.52-.72 2.28l-1.32 3.67h-.58l-2.03-6.62h.68m14.3 2.71c.02-.92-.37-2.33-1.97-2.33-1.46 0-2.1 1.31-2.2 2.33h4.17zm-4.22.53c0 2.12 1.16 2.95 2.53 2.95.96 0 1.46-.2 1.83-.37l.17.52c-.25.14-.93.43-2.09.43-1.9 0-3.09-1.4-3.09-3.34 0-2.2 1.27-3.59 2.98-3.59 2.17 0 2.58 2.05 2.58 3 0 .18 0 .29-.02.4h-4.9zm11.22-.71c0-.23-.03-.44-.08-.63a2.15 2.15 0 0 0-2.06-1.52c-1.4 0-2.37 1.16-2.37 2.91 0 1.5.79 2.77 2.34 2.77.89 0 1.72-.53 2.05-1.49.08-.22.12-.46.12-.7v-1.34zm.65 3.12c0 1.7-.35 2.54-.9 3.06-.6.58-1.5.79-2.25.79s-1.6-.2-2.1-.57l.24-.52c.46.29 1.1.55 1.96.55 1.4 0 2.4-.73 2.4-2.69v-.94h-.03c-.34.68-1.12 1.29-2.3 1.29-1.67 0-2.84-1.45-2.84-3.26 0-2.3 1.51-3.52 2.98-3.52 1.3 0 1.96.72 2.23 1.27H35l.03-1.11h.6c-.02.5-.05 1.02-.05 1.7v3.95zm6.55-2.94c.02-.92-.37-2.33-1.97-2.33-1.46 0-2.1 1.31-2.2 2.33h4.17zm-4.22.53c0 2.12 1.16 2.95 2.53 2.95.96 0 1.46-.2 1.83-.37l.17.52c-.25.14-.93.43-2.09.43-1.9 0-3.09-1.4-3.09-3.34 0-2.2 1.27-3.59 2.98-3.59 2.17 0 2.58 2.05 2.58 3 0 .18 0 .29-.02.4h-4.9zm6.59-1.66c0-.6-.02-1.06-.05-1.58h.61l.06 1.2h.02a2.48 2.48 0 0 1 2.28-1.36c.63 0 2.3.32 2.3 2.8v3.98h-.64V31.2c0-1.2-.48-2.3-1.84-2.3-.94 0-1.72.67-1.99 1.53-.05.16-.1.38-.1.59v4.1h-.64v-5.04"/>
    <path fill="#D8232A" d="M55 32.07c-.32 0-.56-.28-.56-.6 0-.37.25-.63.57-.63.34 0 .57.26.57.62 0 .33-.23.6-.57.6H55"/>
    <path fill="#777776" d="M60.36 35.12h.65v-9.3h-.65zm3.11-5.04c0-.6-.03-1.06-.06-1.58h.61l.06 1.2h.02a2.48 2.48 0 0 1 2.28-1.36c.63 0 2.3.32 2.3 2.8v3.98h-.65V31.2c0-1.2-.46-2.3-1.83-2.3a2.12 2.12 0 0 0-2.08 2.12v4.1h-.65v-5.04m8.31-3.05v1.47h1.89v.52h-1.9v4.3c0 .85.27 1.38.97 1.38.35 0 .6-.05.76-.1l.08.5c-.22.1-.52.17-.92.17-.48 0-.88-.17-1.13-.49-.3-.34-.42-.9-.42-1.57v-4.19H70v-.52h1.12v-1.22l.66-.25m7.58 4.18c.02-.92-.37-2.33-1.97-2.33-1.46 0-2.1 1.31-2.2 2.33h4.18zm-4.22.53c0 2.12 1.16 2.95 2.53 2.95.96 0 1.46-.2 1.83-.37l.17.52c-.25.14-.93.43-2.09.43-1.9 0-3.08-1.4-3.08-3.34 0-2.2 1.26-3.59 2.97-3.59 2.17 0 2.58 2.05 2.58 3 0 .18 0 .29-.02.4h-4.89zm11.22-.71c0-.23-.03-.44-.08-.63a2.15 2.15 0 0 0-2.06-1.52c-1.4 0-2.37 1.16-2.37 2.91 0 1.5.79 2.77 2.35 2.77.88 0 1.7-.53 2.04-1.49.08-.22.12-.46.12-.7v-1.34zm.65 3.12c0 1.7-.35 2.54-.9 3.06-.6.58-1.5.79-2.25.79s-1.6-.2-2.1-.57l.24-.52c.46.29 1.1.55 1.96.55 1.4 0 2.4-.73 2.4-2.69v-.94h-.03c-.34.68-1.11 1.29-2.3 1.29-1.67 0-2.84-1.45-2.84-3.26 0-2.3 1.52-3.52 2.98-3.52 1.3 0 1.96.72 2.23 1.27h.03l.03-1.11h.6c-.02.5-.05 1.02-.05 1.7v3.95zm2.13-3.67c0-.66-.03-1.35-.06-1.98h.6l.04 1.33h.02c.3-.82.98-1.49 1.9-1.49l.25.03v.64c-.1-.03-.19-.03-.31-.03-.91 0-1.56.79-1.74 1.85-.03.19-.06.41-.06.63v3.66h-.64v-4.64m4.16 4.64h.65V28.5h-.65v6.62zm.86-8.51c0 .3-.2.56-.55.56-.3 0-.51-.26-.51-.56 0-.3.23-.58.54-.58.31 0 .52.26.52.58zm6.34 4.6c.02-.92-.37-2.33-1.97-2.33-1.46 0-2.1 1.31-2.2 2.33h4.18zm-4.22.53c0 2.12 1.16 2.95 2.53 2.95.96 0 1.46-.2 1.84-.37l.16.52c-.25.14-.93.43-2.08.43-1.9 0-3.1-1.4-3.1-3.34 0-2.2 1.28-3.59 2.99-3.59 2.16 0 2.57 2.05 2.57 3 0 .18 0 .29-.02.4h-4.89zm6.6-1.26c0-.66-.03-1.35-.05-1.98h.6l.03 1.33h.03c.29-.82.98-1.49 1.89-1.49l.26.03v.64c-.1-.03-.2-.03-.32-.03-.9 0-1.56.79-1.73 1.85-.03.19-.06.41-.06.63v3.66h-.65v-4.64m8.24.73c.01-.92-.37-2.33-1.97-2.33-1.47 0-2.1 1.31-2.21 2.33h4.18zm-4.22.53c0 2.12 1.16 2.95 2.52 2.95.97 0 1.46-.2 1.84-.37l.16.52c-.25.14-.92.43-2.08.43-1.9 0-3.1-1.4-3.1-3.34 0-2.2 1.28-3.59 2.99-3.59 2.16 0 2.58 2.05 2.58 3 0 .18 0 .29-.03.4h-4.88zm6.6-1.66c0-.6-.03-1.06-.06-1.58h.6l.06 1.2h.03a2.48 2.48 0 0 1 2.27-1.36c.64 0 2.3.32 2.3 2.8v3.98h-.64V31.2c0-1.2-.47-2.3-1.84-2.3a2.12 2.12 0 0 0-2.08 2.12v4.1h-.65v-5.04"/>
    <path fill="#D8232A" d="M123.98 32.07c-.32 0-.55-.28-.55-.6 0-.37.25-.63.56-.63.35 0 .57.26.57.62 0 .33-.22.6-.56.6h-.02"/>
    <path fill="#777776" d="M129.35 25.82h4.59v.55H130v3.7h3.61v.55H130v4.5h-.65v-9.3m9.6 1.32c-.3 0-.5-.26-.5-.53 0-.3.23-.54.53-.54.29 0 .5.25.5.54 0 .27-.2.53-.51.53h-.02zm-2.34 0c-.3 0-.5-.26-.5-.53 0-.3.22-.54.52-.54.3 0 .5.25.5.54 0 .27-.2.53-.5.53h-.02zm-1.26 4.68c0 1.65 1.06 2.9 2.42 2.9 1.38 0 2.46-1.25 2.46-2.94 0-1.22-.69-2.9-2.42-2.9-1.69 0-2.46 1.52-2.46 2.94zm5.55-.08c0 2.48-1.7 3.53-3.18 3.53-1.7 0-3.03-1.34-3.03-3.4 0-2.28 1.49-3.53 3.13-3.53 1.84 0 3.08 1.37 3.08 3.4zm1.68-1.26c0-.66-.02-1.35-.05-1.98h.6l.03 1.33h.03c.29-.82.98-1.49 1.89-1.49l.26.03v.64c-.1-.03-.2-.03-.32-.03-.9 0-1.55.79-1.73 1.85-.03.19-.06.41-.06.63v3.66h-.65v-4.64m8.54.64a2.15 2.15 0 0 0-2.15-2.23c-1.45 0-2.36 1.25-2.36 2.97 0 1.5.75 2.86 2.32 2.86a2.2 2.2 0 0 0 2.13-1.73c.04-.18.06-.34.06-.55v-1.32zm.65-5.8v8.25c0 .5.03 1.08.06 1.55h-.6l-.04-1.26h-.02a2.51 2.51 0 0 1-2.36 1.4c-1.63 0-2.86-1.36-2.86-3.33-.01-2.2 1.35-3.59 2.98-3.59 1.15 0 1.86.6 2.17 1.16h.02v-4.18h.65zm6.56 5.89c.01-.92-.38-2.33-1.98-2.33-1.46 0-2.1 1.31-2.2 2.33h4.18zm-4.22.53c0 2.12 1.16 2.95 2.52 2.95.97 0 1.46-.2 1.84-.37l.16.52c-.25.14-.92.43-2.08.43-1.9 0-3.1-1.4-3.1-3.34 0-2.2 1.28-3.59 2.99-3.59 2.16 0 2.58 2.05 2.58 3 0 .18 0 .29-.03.4h-4.88zm6.59-1.26c0-.66-.02-1.35-.05-1.98h.6l.03 1.33h.03c.29-.82.98-1.49 1.89-1.49l.26.03v.64c-.1-.03-.2-.03-.31-.03-.92 0-1.56.79-1.74 1.85-.03.19-.06.41-.06.63v3.66h-.65v-4.64m4.17-.4c0-.6-.03-1.06-.06-1.58h.61l.06 1.2h.02a2.49 2.49 0 0 1 2.28-1.36c.64 0 2.3.32 2.3 2.8v3.98h-.64V31.2c0-1.2-.47-2.3-1.84-2.3a2.1 2.1 0 0 0-1.98 1.53c-.06.16-.1.38-.1.59v4.1h-.65v-5.04"/>
    <path fill="#D8232A" d="M50.1.14c66.26 0 119.98 8.18 119.98 21.33v.07h-27.85c.09-.41.13-.84.13-1.3 0-13-45.03-18.8-107.25-18.8-12.31 0-24.12.63-35.1 1.31V2.1A619.96 619.96 0 0 1 50.08.14"/>
  </g>
</svg>
